<svg height="512pt" viewBox="0 -54 512 512" width="512pt" xmlns="http://www.w3.org/2000/svg"><path d="m502.257812 248.988281c-10.027343-3.800781-23.101562-5.292969-31.253906-5.417969-.074218 0-.148437 0-.226562 0h-92.402344c-.078125 0-.152344 0-.230469.003907-26.75.40625-45.023437 8.570312-61.105469 27.296875-3.113281 3.621094-4.328124 8.503906-3.273437 13.160156 1.050781 4.65625 4.246094 8.542969 8.609375 10.476562 25.105469 11.117188 41.96875 40.40625 41.96875 72.878907v5.019531c0 8.335938 6.761719 15.097656 15.097656 15.097656h117.464844c8.335938 0 15.09375-6.761718 15.09375-15.097656v-109.300781c0-6.273438-3.878906-11.890625-9.742188-14.117188zm0 0" fill="#40deed"/><path d="m502.257812 248.988281c-10.027343-3.800781-23.101562-5.292969-31.253906-5.417969-.074218 0-.148437 0-.226562 0h-46.335938v143.929688h72.464844c8.335938 0 15.09375-6.757812 15.09375-15.09375v-109.300781c0-6.273438-3.878906-11.890625-9.742188-14.117188zm0 0" fill="#25bbcc"/><path d="m480.394531 247.972656c-2.832031-2.828125-6.671875-4.421875-10.675781-4.421875h-19.070312v-18.121093c0-8.335938-6.761719-15.09375-15.097657-15.09375h-21.890625c-8.308594 0-15.054687 6.714843-15.09375 15.023437l-.085937 18.191406h-19.316407c-4.003906 0-7.84375 1.589844-10.675781 4.421875-2.832031 2.832032-4.421875 6.671875-4.417969 10.675782.003907 18.09375 5.90625 25.105468 16.621094 38.027343 11.441406 13.792969 27.027344 21.390625 43.886719 21.390625 33.765625 0 60.226563-20.453125 60.234375-59.414062 0-4.007813-1.589844-7.847656-4.417969-10.679688zm0 0" fill="#ffd3b3"/><path d="m193.964844 269.78125c-16.660156-16.574219-38-25.878906-60.09375-26.210938-.074219 0-.152344 0-.226563 0h-92.394531c-.078125 0-.152344 0-.230469.003907-10.984375.167969-21.722656 2.496093-31.929687 6.917969-5.519532 2.394531-9.089844 7.835937-9.089844 13.851562v108.0625c0 8.335938 6.757812 15.09375 15.09375 15.09375h116.78125c8.335938 0 15.09375-6.757812 15.09375-15.09375v-5.023438c0-32.707031 17.023438-62.0625 42.355469-73.046874 4.59375-1.992188 7.898437-6.128907 8.828125-11.046876.929687-4.917968-.636719-9.976562-4.1875-13.507812zm0 0" fill="#40deed"/><path d="m193.964844 269.78125c-16.660156-16.574219-38-25.878906-60.09375-26.210938-.074219 0-.152344 0-.226563 0h-46.335937v143.929688h44.566406c8.335938 0 15.09375-6.757812 15.09375-15.09375v-5.023438c0-32.707031 17.023438-62.0625 42.355469-73.046874 4.59375-1.992188 7.898437-6.128907 8.828125-11.046876.929687-4.917968-.636719-9.976562-4.1875-13.507812zm0 0" fill="#25bbcc"/><path d="m143.261719 247.972656c-2.832031-2.828125-6.671875-4.421875-10.675781-4.421875h-19.070313v-18.121093c0-8.335938-6.757813-15.09375-15.097656-15.09375h-21.890625c-8.308594 0-15.054688 6.714843-15.09375 15.023437l-.085938 18.191406h-19.316406c-4.003906 0-7.84375 1.589844-10.675781 4.421875-2.828125 2.832032-4.421875 6.671875-4.417969 10.675782.003906 18.09375 5.90625 25.105468 16.621094 38.027343 11.441406 13.792969 27.027344 21.390625 43.886718 21.390625 33.765626 0 60.226563-20.453125 60.234376-59.417968 0-4.003907-1.589844-7.84375-4.417969-10.675782zm0 0" fill="#ffd3b3"/><path d="m480.394531 247.972656c-2.832031-2.828125-6.671875-4.421875-10.675781-4.421875h-19.070312v-18.121093c0-8.335938-6.761719-15.09375-15.097657-15.09375h-11.109375v107.726562c.042969 0 .089844.003906.132813.003906 33.769531 0 60.230469-20.453125 60.238281-59.414062 0-4.007813-1.589844-7.847656-4.417969-10.679688zm0 0" fill="#ffb387"/><path d="m429.355469 95.519531h-9.832031c-34.78125 0-63.078126 28.296875-63.078126 63.078125v13.796875c0 37.492188 30.503907 67.996094 67.996094 67.996094 37.492188 0 67.992188-30.503906 67.992188-67.996094v-13.796875c0-34.78125-28.296875-63.078125-63.078125-63.078125zm0 0" fill="#ffe4c2"/><path d="m429.355469 95.519531h-4.914063v144.871094c37.492188 0 67.992188-30.503906 67.992188-67.996094v-13.796875c0-34.78125-28.296875-63.078125-63.078125-63.078125zm0 0" fill="#ffd3b3"/><path d="m425.308594 143.945312 67.125 28.453126v-13.796876c0-34.785156-28.296875-63.082031-63.078125-63.082031h-9.832031c-34.78125 0-63.078126 28.296875-63.078126 63.082031v17.980469zm0 0" fill="#6d4432"/><path d="m429.355469 95.519531h-4.914063v48.835938l.867188-.410157 67.125 28.449219v-13.796875c0-34.777344-28.296875-63.078125-63.078125-63.078125zm0 0" fill="#59311f"/><path d="m423.503906 70.109375c-3.867187 0-7.730468-1.472656-10.675781-4.421875l-18.597656-18.597656c-5.894531-5.894532-5.894531-15.453125 0-21.347656 5.894531-5.894532 15.453125-5.894532 21.347656 0l7.925781 7.925781 29.242188-29.246094c5.894531-5.894531 15.453125-5.894531 21.351562 0 5.894532 5.894531 5.894532 15.453125 0 21.347656l-39.921875 39.917969c-2.945312 2.949219-6.808593 4.421875-10.671875 4.421875zm0 0" fill="#48b1ff"/><path d="m474.09375 4.421875c-5.894531-5.894531-15.453125-5.894531-21.347656 0l-28.304688 28.304687v37.339844c3.542969-.222656 7.027344-1.667968 9.734375-4.378906l39.917969-39.917969c5.898438-5.894531 5.898438-15.453125 0-21.347656zm0 0" fill="#2386e8"/><path d="m143.261719 247.972656c-2.832031-2.828125-6.671875-4.421875-10.675781-4.421875h-19.070313v-18.121093c0-8.335938-6.757813-15.09375-15.097656-15.09375h-11.109375v107.726562c.046875 0 .089844.003906.136718.003906 33.765626 0 60.226563-20.453125 60.234376-59.417968 0-4.003907-1.589844-7.84375-4.417969-10.675782zm0 0" fill="#ffb387"/><path d="m92.222656 95.519531h-9.832031c-34.78125 0-63.078125 28.296875-63.078125 63.078125v13.796875c0 37.492188 30.503906 67.996094 67.996094 67.996094 37.492187 0 67.992187-30.503906 67.992187-67.996094v-13.796875c.003907-34.78125-28.296875-63.078125-63.078125-63.078125zm0 0" fill="#ffe4c2"/><path d="m92.222656 95.519531h-4.914062v144.871094c37.492187 0 67.992187-30.503906 67.992187-67.996094v-13.796875c.003907-34.78125-28.296875-63.078125-63.078125-63.078125zm0 0" fill="#ffd3b3"/><path d="m88.179688 143.945312 67.125 28.453126v-13.796876c0-34.785156-28.296876-63.082031-63.082032-63.082031h-9.832031c-34.78125 0-63.078125 28.296875-63.078125 63.082031v17.980469zm0 0" fill="#ff8c05"/><path d="m92.222656 95.519531h-4.914062v48.835938l.871094-.410157 67.125 28.449219v-13.796875c0-34.777344-28.296876-63.078125-63.082032-63.078125zm0 0" fill="#f63"/><path d="m84.851562 70.109375c-3.863281 0-7.726562-1.472656-10.671874-4.421875l-18.597657-18.597656c-5.898437-5.894532-5.898437-15.453125 0-21.347656 5.894531-5.894532 15.453125-5.894532 21.347657 0l7.921874 7.925781 29.246094-29.246094c5.894532-5.894531 15.453125-5.894531 21.347656 0 5.894532 5.894531 5.894532 15.453125 0 21.347656l-39.917968 39.917969c-2.949219 2.949219-6.8125 4.421875-10.675782 4.421875zm0 0" fill="#48b1ff"/><path d="m135.445312 4.421875c-5.894531-5.894531-15.453124-5.894531-21.347656 0l-26.789062 26.789063v38.683593c3.007812-.492187 5.898437-1.886719 8.21875-4.207031l39.917968-39.917969c5.894532-5.894531 5.894532-15.453125 0-21.347656zm0 0" fill="#2386e8"/><path d="m378.082031 306.363281c-10.769531-17.988281-25.800781-31.632812-43.472656-39.457031-10.375-4.605469-21.320313-7.023438-32.53125-7.191406v.003906c-4.804687-.011719-88.101563-.011719-92.855469 0v-.003906c-10.980468.167968-21.71875 2.496094-31.910156 6.921875-17.835938 7.734375-33.019531 21.371093-43.90625 39.433593-10.878906 18.046876-16.628906 39.25-16.628906 61.3125v21.175782c0 8.335937 6.761718 15.09375 15.097656 15.09375h247.566406c8.335938 0 15.09375-6.757813 15.09375-15.09375v-21.175782c0-21.933593-5.6875-43.035156-16.453125-61.019531zm0 0" fill="#48b1ff"/><path d="m378.082031 306.363281c-10.769531-17.988281-25.800781-31.632812-43.472656-39.457031-10.375-4.605469-21.320313-7.023438-32.53125-7.191406v.003906c-2.390625-.003906-24.183594-.007812-46.078125-.007812v143.941406h123.441406c8.335938 0 15.09375-6.757813 15.09375-15.09375v-21.175782c0-21.933593-5.6875-43.035156-16.453125-61.019531zm0 0" fill="#2386e8"/><path d="m311.46875 264.121094c-2.832031-2.832032-6.671875-4.421875-10.675781-4.421875h-19.070313v-18.121094c0-8.335937-6.757812-15.09375-15.09375-15.09375h-21.890625c-8.335937 0-15.097656 6.757813-15.097656 15.09375v18.121094h-19.398437c-4.007813 0-7.84375 1.589843-10.675782 4.421875-2.832031 2.832031-4.421875 6.671875-4.421875 10.675781.003907 18.09375 5.90625 25.105469 16.621094 38.023437 11.441406 13.796876 27.027344 21.394532 43.886719 21.394532 33.769531 0 60.226562-20.453125 60.234375-59.417969.003906-4.003906-1.585938-7.84375-4.417969-10.675781zm0 0" fill="#ffd3b3"/><path d="m311.46875 264.121094c-2.832031-2.832032-6.671875-4.421875-10.675781-4.421875h-19.070313v-18.121094c0-8.335937-6.757812-15.09375-15.09375-15.09375h-10.628906v107.726563c33.601562-.140626 59.878906-20.585938 59.890625-59.414063 0-4.003906-1.589844-7.84375-4.421875-10.675781zm0 0" fill="#ffb387"/><path d="m260.214844 111.804688h-9.832032c-34.78125 0-63.078124 28.296874-63.078124 63.078124v13.796876c0 37.492187 30.503906 67.996093 67.996093 67.996093 37.492188 0 67.992188-30.503906 67.992188-67.996093v-13.796876c0-34.78125-28.296875-63.078124-63.078125-63.078124zm0 0" fill="#ffe4c2"/><path d="m260.214844 111.804688h-4.214844v144.851562c37.171875-.378906 67.292969-30.71875 67.292969-67.976562v-13.796876c0-34.78125-28.296875-63.078124-63.078125-63.078124zm0 0" fill="#ffd3b3"/><path d="m256.171875 160.230469 67.125 28.453125v-13.796875c0-34.785157-28.296875-63.082031-63.082031-63.082031h-9.832032c-34.78125 0-63.078124 28.296874-63.078124 63.082031v17.980469zm0 0" fill="#ffc364"/><path d="m260.214844 111.808594h-4.214844v48.503906l.171875-.082031 67.125 28.453125v-13.796875c0-34.78125-28.296875-63.078125-63.082031-63.078125zm0 0" fill="#ff9b32"/><path d="m250.792969 85.617188c-3.867188 0-7.730469-1.472657-10.675781-4.421876l-18.597657-18.597656c-5.894531-5.894531-5.894531-15.453125 0-21.347656 5.894531-5.898438 15.453125-5.898438 21.347657 0l7.925781 7.921875 29.246093-29.246094c5.894532-5.894531 15.453126-5.894531 21.347657 0 5.894531 5.898438 5.894531 15.453125 0 21.351563l-39.921875 39.917968c-2.945313 2.945313-6.808594 4.421876-10.671875 4.421876zm0 0" fill="#48b1ff"/><path d="m301.386719 19.925781c-5.894531-5.894531-15.453125-5.894531-21.347657 0l-24.039062 24.039063v40.710937c1.992188-.730469 3.867188-1.882812 5.464844-3.480469l39.921875-39.917968c5.894531-5.898438 5.894531-15.457032 0-21.351563zm0 0" fill="#2386e8"/></svg>