<?xml version="1.0" encoding="utf-8"?>
<!-- Generator: Adobe Illustrator 22.0.0, SVG Export Plug-In . SVG Version: 6.00 Build 0)  -->
<svg xmlns="http://www.w3.org/2000/svg" xmlns:xlink="http://www.w3.org/1999/xlink" version="1.1" id="Layer_2" x="0px" y="0px" viewBox="0 0 256 256" style="enable-background:new 0 0 256 256;" xml:space="preserve" width="512" height="512">
<style type="text/css">
	.st0{fill:#87796F;}
	.st1{fill:#3A312A;}
	.st2{fill:#FCE8CB;}
	.st3{fill:#D7E057;}
	.st4{fill:#8AC6DD;}
	.st5{fill:#F16C7A;}
	.st6{fill:#DECAAD;}
	.st7{fill:#B9C239;}
	.st8{fill:#695B51;}
	.st9{fill:#8AC6DD;stroke:#3A312A;stroke-width:3;stroke-linecap:round;stroke-linejoin:round;stroke-miterlimit:10;}
	.st10{fill:#6CA8BF;}
	.st11{fill:#D34E5C;}
	.st12{fill-rule:evenodd;clip-rule:evenodd;fill:#FCE8CB;}
	.st13{fill:#F5978A;}
	.st14{fill-rule:evenodd;clip-rule:evenodd;fill:#F16C7A;}
	.st15{fill-rule:evenodd;clip-rule:evenodd;fill:#D7E057;}
</style>
<g>
	<g>
		<g>
			<path class="st2" d="M17.51,52v176.28c0,6.16,5,11.16,11.16,11.16h144.41c6.16,0,11.16-5,11.16-11.16V52H17.51z"/>
		</g>
	</g>
	<g>
		<g>
			<path class="st1" d="M184.24,50.5H17.51c-0.829,0-1.5,0.671-1.5,1.5v37.017c0,0.829,0.671,1.5,1.5,1.5c0.829,0,1.5-0.671,1.5-1.5     V53.5h163.73v174.78c0,5.326-4.333,9.66-9.66,9.66H28.67c-5.327,0-9.66-4.333-9.66-9.66V103.65c0-0.829-0.671-1.5-1.5-1.5     c-0.829,0-1.5,0.671-1.5,1.5v124.63c0,6.98,5.679,12.66,12.66,12.66h144.41c6.981,0,12.66-5.679,12.66-12.66V52     C185.74,51.171,185.069,50.5,184.24,50.5z"/>
		</g>
	</g>
	<g>
		<g>
			<path class="st5" d="M173.076,16.56H28.674c-6.165,0-11.163,4.998-11.163,11.162V52h166.728V27.722     C184.239,21.557,179.241,16.56,173.076,16.56z"/>
		</g>
	</g>
	<g>
		<g>
			<path class="st1" d="M173.076,15.06h-50.655c-0.829,0-1.5,0.671-1.5,1.5c0,0.829,0.671,1.5,1.5,1.5h50.655     c5.328,0,9.663,4.334,9.663,9.662V50.5H19.011V27.722c0-5.328,4.335-9.662,9.662-9.662h79.573c0.829,0,1.5-0.671,1.5-1.5     c0-0.829-0.671-1.5-1.5-1.5H28.673c-6.982,0-12.662,5.68-12.662,12.662V52c0,0.829,0.671,1.5,1.5,1.5h166.728     c0.829,0,1.5-0.671,1.5-1.5V27.722C185.739,20.74,180.059,15.06,173.076,15.06z"/>
		</g>
	</g>
	<g>
		<g>
			<path class="st1" d="M163.862,102.167H35.476c-0.829,0-1.5,0.671-1.5,1.5s0.671,1.5,1.5,1.5h128.386c0.829,0,1.5-0.671,1.5-1.5     S164.69,102.167,163.862,102.167z"/>
		</g>
	</g>
	<g>
		<g>
			<path class="st1" d="M163.862,127.667H35.476c-0.829,0-1.5,0.671-1.5,1.5s0.671,1.5,1.5,1.5h128.386c0.829,0,1.5-0.671,1.5-1.5     S164.69,127.667,163.862,127.667z"/>
		</g>
	</g>
	<g>
		<g>
			<path class="st1" d="M163.862,76.667H35.476c-0.829,0-1.5,0.671-1.5,1.5s0.671,1.5,1.5,1.5h128.386c0.829,0,1.5-0.671,1.5-1.5     S164.69,76.667,163.862,76.667z"/>
		</g>
	</g>
	<g>
		<g>
			<path class="st1" d="M163.862,153.167H35.476c-0.829,0-1.5,0.671-1.5,1.5s0.671,1.5,1.5,1.5h128.386c0.829,0,1.5-0.671,1.5-1.5     S164.69,153.167,163.862,153.167z"/>
		</g>
	</g>
	<g>
		<g>
			<path class="st1" d="M163.862,178.667H35.476c-0.829,0-1.5,0.671-1.5,1.5s0.671,1.5,1.5,1.5h128.386c0.829,0,1.5-0.671,1.5-1.5     S164.69,178.667,163.862,178.667z"/>
		</g>
	</g>
	<g>
		<g>
			<path class="st3" d="M221.885,26.237c-0.974,11.564-13.025,13.389-13.025,13.389c10.346,0.487,12.925,14.059,12.925,14.059     c0.221-9.677,13.321-14.202,13.321-14.202C225.293,38.896,221.885,26.237,221.885,26.237z"/>
		</g>
	</g>
	<g>
		<g>
			<path class="st1" d="M235.197,37.986c-8.605-0.515-11.832-12.024-11.864-12.141c-0.191-0.703-0.864-1.168-1.583-1.102     c-0.725,0.066-1.298,0.642-1.359,1.367c-0.86,10.215-11.313,11.964-11.754,12.033c-0.763,0.115-1.313,0.79-1.273,1.56     c0.04,0.77,0.657,1.384,1.428,1.421c9.028,0.425,11.499,12.718,11.523,12.842c0.137,0.711,0.759,1.217,1.472,1.217     c0.042,0,0.085-0.002,0.126-0.005c0.764-0.064,1.357-0.693,1.375-1.459c0.195-8.509,12.192-12.777,12.313-12.819     c0.675-0.235,1.092-0.914,0.994-1.623C236.494,38.57,235.911,38.029,235.197,37.986z M221.63,48.331     c-1.357-3.13-3.709-6.907-7.587-8.876c2.931-1.405,6.409-3.913,8.202-8.273c1.551,3.071,4.199,6.88,8.334,8.723     C227.572,41.544,223.657,44.31,221.63,48.331z"/>
		</g>
	</g>
	<g>
		<g>
			<path class="st3" d="M200.186,43.217c-0.689,8.179-9.212,9.471-9.212,9.471c7.318,0.344,9.142,9.944,9.142,9.944     c0.156-6.845,9.422-10.045,9.422-10.045C202.597,52.171,200.186,43.217,200.186,43.217z"/>
		</g>
	</g>
	<g>
		<g>
			<path class="st1" d="M209.628,51.089c-5.767-0.345-7.973-8.186-7.994-8.265c-0.19-0.702-0.854-1.169-1.582-1.102     c-0.726,0.066-1.299,0.643-1.36,1.368c-0.579,6.871-7.647,8.067-7.942,8.114c-0.763,0.115-1.313,0.79-1.273,1.561     c0.04,0.77,0.657,1.384,1.428,1.421c6.035,0.284,7.723,8.644,7.739,8.726c0.135,0.713,0.759,1.22,1.473,1.22     c0.041,0,0.083-0.001,0.125-0.005c0.765-0.063,1.358-0.693,1.376-1.461c0.131-5.71,8.332-8.634,8.413-8.662     c0.676-0.234,1.094-0.913,0.996-1.622C210.927,51.674,210.342,51.132,209.628,51.089z M200.043,57.885     c-0.924-1.886-2.34-3.948-4.447-5.28c1.856-1.041,3.697-2.629,4.87-4.916c1.057,1.873,2.655,3.954,4.941,5.224     C203.558,54.013,201.419,55.652,200.043,57.885z"/>
		</g>
	</g>
	<g>
		<g>
			<path class="st3" d="M200.186,16.56c-0.689,8.179-9.212,9.47-9.212,9.47c7.318,0.344,9.142,9.944,9.142,9.944     c0.156-6.845,9.422-10.045,9.422-10.045C202.597,25.514,200.186,16.56,200.186,16.56z"/>
		</g>
	</g>
	<g>
		<g>
			<path class="st1" d="M209.628,24.432c-5.74-0.343-7.952-8.112-7.994-8.263c-0.19-0.702-0.854-1.165-1.582-1.103     c-0.726,0.065-1.299,0.643-1.36,1.368c-0.579,6.87-7.647,8.066-7.942,8.113c-0.763,0.115-1.313,0.79-1.273,1.56     c0.04,0.77,0.657,1.384,1.427,1.421c6.036,0.284,7.724,8.644,7.739,8.726c0.135,0.713,0.759,1.22,1.472,1.22     c0.041,0,0.083-0.002,0.125-0.005c0.765-0.064,1.358-0.693,1.376-1.461c0.131-5.709,8.332-8.634,8.413-8.662     c0.676-0.234,1.094-0.913,0.996-1.622C210.927,25.016,210.342,24.475,209.628,24.432z M200.043,31.227     c-0.924-1.886-2.34-3.947-4.447-5.28c1.856-1.042,3.697-2.63,4.871-4.917c1.057,1.873,2.655,3.955,4.941,5.224     C203.558,27.355,201.419,28.995,200.043,31.227z"/>
		</g>
	</g>
	<g>
		<g>
			<path class="st1" d="M109.476,204.167h-74c-0.829,0-1.5,0.671-1.5,1.5s0.671,1.5,1.5,1.5h74c0.829,0,1.5-0.671,1.5-1.5     S110.304,204.167,109.476,204.167z"/>
		</g>
	</g>
	<g>
		<g>
			
				<rect x="117.641" y="148.457" transform="matrix(0.4893 -0.8721 0.8721 0.4893 -40.9638 245.9728)" class="st4" width="143.812" height="19.014"/>
		</g>
	</g>
	<g>
		<g>
			<path class="st1" d="M233.757,98.599l-16.582-9.304c-0.347-0.195-0.758-0.245-1.14-0.136c-0.383,0.107-0.708,0.363-0.902,0.71     l-70.37,125.419c-0.405,0.722-0.148,1.637,0.574,2.042l16.582,9.304c0.226,0.127,0.479,0.192,0.734,0.192     c0.136,0,0.273-0.019,0.406-0.056c0.383-0.107,0.707-0.363,0.902-0.71l70.371-125.419     C234.736,99.919,234.479,99.004,233.757,98.599z M162.078,223.284l-13.966-7.836l68.902-122.803l13.966,7.836L162.078,223.284z"/>
		</g>
	</g>
	<g>
		<g>
			
				<rect x="154.1" y="148.457" transform="matrix(0.4893 -0.8721 0.8721 0.4893 -40.9639 245.9727)" class="st3" width="70.892" height="19.014"/>
		</g>
	</g>
	<g>
		<g>
			<path class="st1" d="M215.916,130.396l-16.583-9.304c-0.347-0.195-0.759-0.244-1.14-0.136c-0.383,0.107-0.708,0.363-0.902,0.71     l-34.689,61.825c-0.405,0.722-0.148,1.637,0.574,2.042l16.582,9.304c0.226,0.127,0.479,0.192,0.734,0.192     c0.136,0,0.273-0.018,0.406-0.056c0.383-0.108,0.708-0.363,0.902-0.71l34.689-61.825     C216.896,131.715,216.639,130.801,215.916,130.396z M179.919,191.487l-13.966-7.836l33.221-59.209l13.966,7.836L179.919,191.487z     "/>
		</g>
	</g>
	<g>
		<g>
			<path class="st5" d="M232.734,80.993c-4.579-2.569-10.374-0.94-12.943,3.639l-3.35,5.971l16.582,9.304l3.35-5.971     C238.942,89.357,237.313,83.562,232.734,80.993z"/>
		</g>
	</g>
	<g>
		<g>
			<path class="st1" d="M238.678,86.305c-0.796-2.83-2.646-5.181-5.21-6.62c-2.565-1.44-5.536-1.792-8.365-0.997     c-2.83,0.796-5.181,2.647-6.62,5.21l-3.35,5.97c-0.195,0.347-0.244,0.757-0.136,1.14c0.107,0.383,0.363,0.708,0.71,0.902     l16.583,9.304c0.226,0.127,0.479,0.192,0.734,0.192c0.136,0,0.273-0.018,0.406-0.056c0.383-0.107,0.708-0.363,0.902-0.71     l3.35-5.971C239.12,92.106,239.474,89.135,238.678,86.305z M235.065,93.202l-2.616,4.663l-13.966-7.836l2.616-4.662     c1.046-1.865,2.757-3.211,4.815-3.79c2.06-0.58,4.22-0.321,6.085,0.725c1.865,1.047,3.211,2.757,3.79,4.816     C236.369,89.176,236.111,91.337,235.065,93.202z"/>
		</g>
	</g>
	<g>
		<g>
			<path class="st0" d="M146.07,216.021l-0.774,16.223c-0.099,2.065,2.202,3.356,3.913,2.196l13.443-9.115L146.07,216.021z"/>
		</g>
	</g>
	<g>
		<g>
			<path class="st1" d="M163.386,224.018l-16.582-9.304c-0.454-0.255-1.007-0.256-1.461-0.004c-0.455,0.252-0.747,0.721-0.771,1.241     l-0.774,16.223c-0.073,1.527,0.71,2.939,2.042,3.687c0.615,0.345,1.29,0.517,1.963,0.517c0.785,0,1.567-0.233,2.248-0.694     l13.443-9.115c0.43-0.292,0.679-0.786,0.657-1.305C164.129,224.743,163.84,224.272,163.386,224.018z M148.368,233.199     c-0.465,0.316-0.895,0.137-1.059,0.045c-0.164-0.091-0.541-0.365-0.514-0.928l0.658-13.799l12.349,6.929L148.368,233.199z"/>
		</g>
	</g>
	<g>
		<g>
			<path class="st1" d="M233.757,98.599c-0.722-0.407-1.637-0.149-2.042,0.574c-0.405,0.722-0.148,1.637,0.574,2.042     c4.425,2.483,6.005,8.103,3.522,12.527l-29.498,52.574c-0.405,0.722-0.148,1.637,0.574,2.042c0.232,0.13,0.484,0.192,0.732,0.192     c0.525,0,1.035-0.276,1.31-0.767l29.498-52.574C241.72,109.343,239.625,101.891,233.757,98.599z"/>
		</g>
	</g>
	<g>
		<g>
			<path class="st0" d="M167.855,24.524h-11.262c-2.124,0-3.846,1.722-3.846,3.846v11.262c0,2.124,1.722,3.846,3.846,3.846h11.262     c2.124,0,3.846-1.722,3.846-3.846V28.369C171.7,26.245,169.979,24.524,167.855,24.524z"/>
		</g>
	</g>
	<g>
		<g>
			<path class="st1" d="M167.854,23.023h-11.262c-2.948,0-5.346,2.398-5.346,5.346v11.262c0,2.948,2.398,5.346,5.346,5.346h11.262     c2.948,0,5.346-2.398,5.346-5.346V28.369C173.2,25.421,170.802,23.023,167.854,23.023z M170.2,39.631     c0,1.293-1.052,2.346-2.346,2.346h-11.262c-1.293,0-2.346-1.052-2.346-2.346V28.369c0-1.293,1.052-2.346,2.346-2.346h11.262     c1.293,0,2.346,1.052,2.346,2.346V39.631z"/>
		</g>
	</g>
	<g>
		<g>
			<path class="st0" d="M137.18,24.524h-11.262c-2.124,0-3.846,1.722-3.846,3.846v11.262c0,2.124,1.722,3.846,3.846,3.846h11.262     c2.124,0,3.846-1.722,3.846-3.846V28.369C141.026,26.245,139.304,24.524,137.18,24.524z"/>
		</g>
	</g>
	<g>
		<g>
			<path class="st1" d="M137.18,23.023h-11.262c-2.948,0-5.346,2.398-5.346,5.346v11.262c0,2.948,2.398,5.346,5.346,5.346h11.262     c2.948,0,5.346-2.398,5.346-5.346V28.369C142.526,25.421,140.128,23.023,137.18,23.023z M139.526,39.631     c0,1.293-1.052,2.346-2.346,2.346h-11.262c-1.294,0-2.346-1.052-2.346-2.346V28.369c0-1.293,1.052-2.346,2.346-2.346h11.262     c1.293,0,2.346,1.052,2.346,2.346V39.631z"/>
		</g>
	</g>
	<g>
		<g>
			<path class="st0" d="M106.506,24.524H95.244c-2.124,0-3.846,1.722-3.846,3.846v11.262c0,2.124,1.722,3.846,3.846,3.846h11.262     c2.124,0,3.846-1.722,3.846-3.846V28.369C110.351,26.245,108.63,24.524,106.506,24.524z"/>
		</g>
	</g>
	<g>
		<g>
			<path class="st1" d="M106.505,23.023H95.244c-2.947,0-5.345,2.398-5.345,5.346v11.262c0,2.948,2.398,5.346,5.345,5.346h11.262     c2.948,0,5.346-2.398,5.346-5.346V28.369C111.851,25.421,109.453,23.023,106.505,23.023z M108.851,39.631     c0,1.293-1.052,2.346-2.346,2.346H95.244c-1.293,0-2.345-1.052-2.345-2.346V28.369c0-1.293,1.052-2.346,2.345-2.346h11.262     c1.293,0,2.346,1.052,2.346,2.346V39.631z"/>
		</g>
	</g>
	<g>
		<g>
			<path class="st0" d="M75.831,24.524H64.569c-2.124,0-3.846,1.722-3.846,3.846v11.262c0,2.124,1.722,3.846,3.846,3.846h11.262     c2.124,0,3.846-1.722,3.846-3.846V28.369C79.677,26.245,77.955,24.524,75.831,24.524z"/>
		</g>
	</g>
	<g>
		<g>
			<path class="st1" d="M75.831,23.023H64.569c-2.948,0-5.346,2.398-5.346,5.346v11.262c0,2.948,2.398,5.346,5.346,5.346h11.262     c2.948,0,5.346-2.398,5.346-5.346V28.369C81.177,25.421,78.779,23.023,75.831,23.023z M78.177,39.631     c0,1.293-1.052,2.346-2.346,2.346H64.569c-1.293,0-2.346-1.052-2.346-2.346V28.369c0-1.293,1.052-2.346,2.346-2.346h11.262     c1.293,0,2.346,1.052,2.346,2.346V39.631z"/>
		</g>
	</g>
	<g>
		<g>
			<path class="st0" d="M45.157,24.524H33.895c-2.124,0-3.846,1.722-3.846,3.846v11.262c0,2.124,1.722,3.846,3.846,3.846h11.262     c2.124,0,3.846-1.722,3.846-3.846V28.369C49.002,26.245,47.281,24.524,45.157,24.524z"/>
		</g>
	</g>
	<g>
		<g>
			<path class="st1" d="M45.157,23.023H33.895c-2.948,0-5.346,2.398-5.346,5.346v11.262c0,2.948,2.398,5.346,5.346,5.346h11.262     c2.948,0,5.346-2.398,5.346-5.346V28.369C50.502,25.421,48.104,23.023,45.157,23.023z M47.502,39.631     c0,1.293-1.052,2.346-2.346,2.346H33.895c-1.293,0-2.346-1.052-2.346-2.346V28.369c0-1.293,1.052-2.346,2.346-2.346h11.262     c1.294,0,2.346,1.052,2.346,2.346V39.631z"/>
		</g>
	</g>
	<g>
		<g>
			<path class="st6" d="M163.63,181.67h-15l-1.03,1.82l-17.84,31.8c-0.05,0.09-0.09,0.18-0.12,0.28c0,0.01,0,0.02-0.01,0.04     c-0.03,0.1-0.04,0.2-0.05,0.3c0,0.01-0.01,0.03-0.01,0.04l-0.77,16.22c-0.08,1.53,0.71,2.94,2.04,3.69     c0.62,0.35,1.29,0.52,1.96,0.52c0.79,0,1.57-0.24,2.25-0.7l8.87-6.01l0.65-13.72c0-0.01,0.01-0.03,0.01-0.04     c0.01-0.1,0.02-0.2,0.05-0.3c0.01-0.02,0.01-0.03,0.01-0.04c0.03-0.1,0.07-0.19,0.12-0.28l17.84-31.8L163.63,181.67z      M167.74,219.32v8.96c0,5.33-4.34,9.66-9.66,9.66h15c5.32,0,9.66-4.33,9.66-9.66v-35.69l-0.94,1.67L167.74,219.32z M167.74,53.5     v94.1l-2.79,4.98l-0.42,0.76c0.49,0.23,0.83,0.74,0.83,1.33c0,0.83-0.67,1.5-1.5,1.5h-0.92l-12.63,22.5h13.55     c0.46,0,0.87,0.21,1.15,0.54l14.94-26.63l2.79-4.98V53.5H167.74z"/>
		</g>
	</g>
	<g>
		<g>
			<path class="st11" d="M173.08,18.06h-15c3.62,0,6.78,2,8.43,4.96h1.34c2.95,0,5.35,2.4,5.35,5.35v11.26     c0,2.95-2.4,5.35-5.35,5.35h-0.11v5.52h15V27.72C182.74,22.39,178.4,18.06,173.08,18.06z"/>
		</g>
	</g>
</g>
</svg>
