<svg height="512pt" viewBox="0 0 512 511" width="512pt" xmlns="http://www.w3.org/2000/svg"><path d="m504 8.5h-496v400h99.289062c5.136719 22.558594 16.542969 43.207031 32.902344 59.566406l.242188.242188c48.246094 48.253906 126.476562 48.253906 174.726562 0l59.808594-59.808594h129.03125zm0 0" fill="#ffe082"/><path d="m8 8.5h496v64h-496zm0 0" fill="#9fa8da"/><path d="m232 304.5-51.878906 12.96875c-7.125 1.78125-12.125 8.183594-12.121094 15.527344v156c48.183594 26.714844 108.238281 18.28125 147.199219-20.671875l28.800781-28.800781v-106.527344c.003906-7.34375-4.996094-13.746094-12.121094-15.527344l-51.878906-12.96875zm0 0" fill="#ff8a65"/><path d="m200 384.5h-32v104.480469c10.046875 5.53125 20.816406 9.628906 32 12.175781zm0 0" fill="#ffd54f"/><path d="m312 471.21875c1.046875-.984375 2.136719-1.886719 3.199219-2.910156l28.800781-28.800782v-55.007812h-32zm0 0" fill="#ffd54f"/><path d="m280 304.5s0 16-24 16-24-16-24-16v-40h48zm0 0" fill="#ffd54f"/><path d="m288 216.5v47.742188l-21.335938 16.257812h-21.328124l-21.335938-16.257812v-47.742188zm0 0" fill="#ffe082"/><path d="m208 216.5c4.703125-18.804688 21.597656-32 40.984375-32h23.015625c8.835938 0 16 7.164062 16 16v16zm0 0" fill="#90a4ae"/><path d="m264 384.5h-16v-16h16zm0-32h-16v-16h16zm0 0"/><path d="m248 400.5h16v96h-16zm0 0"/><g fill="#fff"><path d="m160 32.5h320v16h-320zm0 0"/><path d="m32 32.5h16v16h-16zm0 0"/><path d="m64 32.5h16v16h-16zm0 0"/><path d="m96 32.5h16v16h-16zm0 0"/><path d="m264 384.5h-16v-16h16zm0-32h-16v-16h16zm0 0"/><path d="m248 400.5h16v96h-16zm0 0"/></g><path d="m0 .5v416h101.121094c12.667968 44.949219 48.203125 79.816406 93.382812 91.636719 45.179688 11.820312 93.238282-1.179688 126.296875-34.164063l59.199219-57.472656h132v-416zm192 490.128906c-5.492188-1.773437-10.839844-3.960937-16-6.542968v-91.585938h16zm144-54.472656-16 16v-59.65625h16zm0-59.65625h-16v-24h-16v115.128906c-26.25 23.089844-61.5625 33.015625-96 26.984375v-142.113281h-16v24h-16v-43.503906c-.003906-3.671875 2.492188-6.875 6.054688-7.769532l44.457031-11.125c3.777343 7.199219 12.375 14.398438 29.488281 14.398438s25.710938-7.199219 29.488281-14.398438l44.449219 11.109376c3.5625.890624 6.066406 4.09375 6.0625 7.769531zm-72.039062-104h-15.921876l-16-12.214844v-35.785156h32v-16h-44.039062c6.261719-9.96875 17.21875-16.015625 28.992188-16h23.007812c4.417969 0 8 3.582031 8 8v59.785156zm8.039062 13.992188v17.832031c-.113281 1.457031-1.398438 8.175781-16 8.175781-14.726562 0-15.910156-6.855469-16-8v-18.007812l2.632812 2.007812h26.734376zm224 114.007812h-101.71875l53.71875-53.71875v37.71875h16v-64h-12.34375l-99.65625 99.65625v-87.199219c.003906-11.015625-7.492188-20.617187-18.175781-23.289062l-45.824219-11.40625v-23.960938l8-6.097656v-67.703125c0-13.253906-10.746094-24-24-24h-23.015625c-23.066406-.027344-43.179687 15.679688-48.746094 38.0625l-2.484375 9.9375h18.246094v43.703125l8 6.097656v23.960938l-45.832031 11.445312c-10.679688 2.675781-18.171875 12.277344-18.167969 23.289063v141.3125c-5.027344-3.585938-9.761719-7.5625-14.160156-11.898438-45.046875-45.152344-45.046875-118.25 0-163.40625l-11.3125-11.304687c-29.539063 29.589843-43.207032 71.484375-36.800782 112.800781h-81.726562v-320h480zm0-336h-480v-48h480zm0 0"/><path d="m202.503906 146.339844c45.285156-44.648438 118.113282-44.386719 163.082032.582031s45.222656 117.796875.574218 163.082031l11.3125 11.296875c50.175782-51.648437 49.578125-134.015625-1.339844-184.933593-50.917968-50.917969-133.285156-51.515626-184.933593-1.339844l-127.199219 127.191406v-37.71875h-16v64h12.34375zm0 0"/></svg>