<svg height="512pt" viewBox="0 0 512 512" width="512pt" xmlns="http://www.w3.org/2000/svg"><path d="m229.515625 141.304688 26.484375 26.480468 26.484375-26.480468c1.613281-.117188 7.34375-.035157 8.824219 0-8.039063-11.292969-17.652344-44.203126-17.652344-70.683594h-35.3125c0 26.480468-9.613281 59.390625-17.652344 70.683594 1.480469-.046876 7.210938-.117188 8.824219 0zm0 0" fill="#c9a27b"/><g fill="#61b872"><path d="m450.207031 167.722656c-4.871093 0-8.828125-3.945312-8.828125-8.824218 0-29.210938 23.753906-52.96875 52.964844-52.96875 4.875 0 8.828125 3.949218 8.828125 8.828124 0 4.882813-3.953125 8.828126-8.828125 8.828126-19.472656 0-35.308594 15.835937-35.308594 35.3125 0 4.878906-3.957031 8.824218-8.828125 8.824218zm0 0"/><path d="m450.207031 167.722656c-4.871093 0-8.828125-3.945312-8.828125-8.824218 0-19.476563-15.835937-35.3125-35.308594-35.3125-4.875 0-8.828124-3.945313-8.828124-8.828126 0-4.878906 3.953124-8.828124 8.828124-8.828124 29.210938 0 52.964844 23.757812 52.964844 52.96875 0 4.878906-3.957031 8.824218-8.828125 8.824218zm0 0"/><path d="m450.207031 167.722656c-4.871093 0-8.828125-3.945312-8.828125-8.824218v-70.621094c0-4.882813 3.957032-8.828125 8.828125-8.828125 4.871094 0 8.828125 3.945312 8.828125 8.828125v70.621094c0 4.878906-3.957031 8.824218-8.828125 8.824218zm0 0"/></g><path d="m478.675781 512h-445.351562c-8.652344 0-15.667969-7.019531-15.667969-15.667969v-249.160156h476.6875v249.160156c0 8.648438-7.015625 15.667969-15.667969 15.667969zm0 0" fill="#be7c6d"/><path d="m476.691406 247.144531h-52.96875v-79.535156c0-4.8125 3.902344-8.710937 8.714844-8.710937h35.546875c4.804687 0 8.707031 3.898437 8.707031 8.710937zm0 0" fill="#7383bf"/><path d="m282.484375 132.414062-26.484375 26.484376-26.484375-26.484376c-26.859375-1.871093-35.308594 17.671876-35.308594 44.136719v61.792969h123.585938v-61.792969c0-26.464843-8.449219-46.007812-35.308594-44.136719zm0 0" fill="#366db6"/><path d="m52.964844 185.140625v-17.167969c0-5.015625 4.0625-9.074218 9.066406-9.074218h61.308594c5.011718 0 9.074218 4.058593 9.074218 9.0625v17.171874c0 5.011719-4.0625 9.074219-9.066406 9.074219h-61.316406c-5.003906 0-9.066406-4.0625-9.066406-9.066406zm0 0" fill="#61b872"/><path d="m35.308594 220.453125v-17.171875c0-5.011719 4.0625-9.074219 9.066406-9.074219h61.308594c5.015625 0 9.074218 4.0625 9.074218 9.066407v17.167968c0 5.015625-4.058593 9.074219-9.066406 9.074219h-61.316406c-5.003906 0-9.066406-4.058594-9.066406-9.0625zm0 0" fill="#366db6"/><path d="m35.308594 149.832031v-17.171875c0-5.011718 4.0625-9.074218 9.066406-9.074218h61.308594c5.015625 0 9.074218 4.0625 9.074218 9.066406v17.167968c0 5.015626-4.058593 9.078126-9.066406 9.078126h-61.316406c-5.003906 0-9.066406-4.0625-9.066406-9.066407zm0 0" fill="#ebba16"/><path d="m344.277344 388.414062c0 48.753907-39.523438 88.277344-88.277344 88.277344s-88.277344-39.523437-88.277344-88.277344c0-48.753906 39.523438-88.277343 88.277344-88.277343s88.277344 39.523437 88.277344 88.277343zm0 0" fill="#fff"/><path d="m308.964844 370.757812h-35.308594v-35.308593h-35.3125v35.308593h-35.308594v35.3125h35.308594v35.308594h35.3125v-35.308594h35.308594zm0 0" fill="#dd352e"/><path d="m496.332031 264.828125h-480.664062c-8.648438 0-15.667969-7.019531-15.667969-15.667969v-3.972656c0-8.652344 7.019531-15.671875 15.667969-15.671875h480.664062c8.648438 0 15.667969 7.019531 15.667969 15.671875v3.972656c0 8.648438-7.019531 15.667969-15.667969 15.667969zm0 0" fill="#6b4842"/><path d="m307.351562 77.472656c-8.316406-10.367187-15.554687-21.054687-16.042968-42.164062 0 0-.007813-.519532-.070313-1.367188-2.285156-1.492187-3.917969-3.644531-4.871093-6.117187-14.035157-10.125-34.066407-19.171875-47.476563-5.5625-.667969 6.3125-5.058594 12.148437-13.230469 12.148437-1.828125 0-3.40625-.351562-4.863281-.867187-.089844 1.078125-.105469 1.765625-.105469 1.765625-.488281 21.109375-7.726562 31.796875-16.042968 42.164062-3.167969 3.945313-1.605469 10.769532 4.070312 10.804688h94.570312c5.667969-.035156 7.230469-6.859375 4.0625-10.804688zm0 0" fill="#fbce9d"/><path d="m282.484375 203.035156h-52.96875c-4.871094 0-8.824219-3.945312-8.824219-8.828125 0-4.882812 3.953125-8.828125 8.824219-8.828125h52.96875c4.871094 0 8.824219 3.945313 8.824219 8.828125 0 4.882813-3.953125 8.828125-8.824219 8.828125zm0 0" fill="#fff"/><path d="m256 0c-35.308594 0-35.308594 35.308594-35.308594 35.308594h70.617188s0-35.308594-35.308594-35.308594zm0 0" fill="#6b4842"/></svg>