<svg height="100%" viewBox="-31 0 512 512" xmlns="http://www.w3.org/2000/svg"><path d="m330 15v421c0 8.402344-6.597656 15-15 15h-300c-8.402344 0-15-6.597656-15-15v-421c0-8.402344 6.597656-15 15-15h300c8.402344 0 15 6.597656 15 15zm0 0" fill="#b5baf3"/><g fill="#979fef"><path d="m330 15v421c0 8.402344-6.597656 15-15 15h-150v-451h150c8.402344 0 15 6.597656 15 15zm0 0"/><path d="m135 181h-60c-8.289062 0-15-6.710938-15-15s6.710938-15 15-15h60c8.289062 0 15 6.710938 15 15s-6.710938 15-15 15zm0 0"/><path d="m135 241h-60c-8.289062 0-15-6.710938-15-15s6.710938-15 15-15h60c8.289062 0 15 6.710938 15 15s-6.710938 15-15 15zm0 0"/><path d="m135 301h-60c-8.289062 0-15-6.710938-15-15s6.710938-15 15-15h60c8.289062 0 15 6.710938 15 15s-6.710938 15-15 15zm0 0"/><path d="m135 361h-60c-8.289062 0-15-6.710938-15-15s6.710938-15 15-15h60c8.289062 0 15 6.710938 15 15s-6.710938 15-15 15zm0 0"/><path d="m135 121h-60c-8.289062 0-15-6.710938-15-15s6.710938-15 15-15h60c8.289062 0 15 6.710938 15 15s-6.710938 15-15 15zm0 0"/></g><path d="m450 181v316c0 8.402344-6.597656 15-15 15h-300c-8.402344 0-15-6.597656-15-15v-421c0-8.402344 6.597656-15 15-15h195zm0 0" fill="#ede9e8"/><path d="m450 181v316c0 8.402344-6.597656 15-15 15h-150v-451h45zm0 0" fill="#dfd7d5"/><path d="m445.585938 155.375-89.960938-89.960938c-2.695312-2.703124-7.933594-4.414062-10.625-4.414062h-15v105c0 8.285156 6.714844 15 15 15h105v-15c0-2.519531-1.742188-7.960938-4.414062-10.625zm0 0" fill="#d2c5c2"/><path d="m390 226c0 8.402344-6.597656 15-15 15h-180c-8.402344 0-15-6.597656-15-15s6.597656-15 15-15h180c8.402344 0 15 6.597656 15 15zm0 0" fill="#dfd7d5"/><path d="m390 286c0 8.402344-6.597656 15-15 15h-180c-8.402344 0-15-6.597656-15-15s6.597656-15 15-15h180c8.402344 0 15 6.597656 15 15zm0 0" fill="#dfd7d5"/><path d="m390 346c0 8.402344-6.597656 15-15 15h-180c-8.402344 0-15-6.597656-15-15s6.597656-15 15-15h180c8.402344 0 15 6.597656 15 15zm0 0" fill="#dfd7d5"/><path d="m390 406c0 8.402344-6.597656 15-15 15h-180c-8.402344 0-15-6.597656-15-15s6.597656-15 15-15h180c8.402344 0 15 6.597656 15 15zm0 0" fill="#dfd7d5"/><path d="m390 406c0 8.402344-6.597656 15-15 15h-90v-30h90c8.402344 0 15 6.597656 15 15zm0 0" fill="#d2c5c2"/><path d="m390 346c0 8.402344-6.597656 15-15 15h-90v-30h90c8.402344 0 15 6.597656 15 15zm0 0" fill="#d2c5c2"/><path d="m390 286c0 8.402344-6.597656 15-15 15h-90v-30h90c8.402344 0 15 6.597656 15 15zm0 0" fill="#d2c5c2"/><path d="m375 241h-90v-30h90c8.402344 0 15 6.597656 15 15s-6.597656 15-15 15zm0 0" fill="#d2c5c2"/></svg>