<svg height="100%" viewBox="-52 0 481 481.4511" xmlns="http://www.w3.org/2000/svg"><g fill="#9bc9ff"><path d="m183.792969 137.929688-.289063-.222657c-49.257812 2.621094-88.492187 42.175781-90.714844 91.453125-2.226562 49.273438 33.285157 92.203125 82.105469 99.25-23.429687-25.148437-35.722656-58.6875-34.09375-93.023437 1.628907-34.332031 17.042969-66.558594 42.75-89.375.800781-2.136719 1.730469-4.199219 2.640625-6.234375-.800781-.621094-1.585937-1.253906-2.398437-1.847656zm0 0"/><path d="m284.65625 233.449219c-.011719-50.992188-39.925781-93.058594-90.847656-95.742188-1.761719 1.273438-3.464844 2.601563-5.152344 3.953125 27.773438 22.175782 45.042969 54.925782 47.65625 90.371094 2.609375 35.445312-9.671875 70.371094-33.898438 96.378906 47.214844-6.796875 82.253907-47.257812 82.242188-94.960937zm0 0"/><path d="m188.65625 137.449219c-1.738281 0-3.433594.167969-5.152344.257812l.289063.222657c1.101562-.210938 2.21875-.34375 3.34375-.398438-.335938.71875-.625 1.503906-.945313 2.238281.800782.625 1.65625 1.242188 2.464844 1.890625 1.6875-1.351562 3.390625-2.679687 5.152344-3.953125-1.722656-.089843-3.417969-.257812-5.152344-.257812zm0 0"/><path d="m362.375 215.546875c18.445312-46.699219-2.210938-99.726563-47.386719-121.640625s-99.609375-5.316406-124.867187 38.082031c-.523438.894531-.984375 1.816407-1.472656 2.734375.242187.382813.457031.785156.640624 1.199219 33.347657-14.539063 71.3125-14.160156 104.363282 1.042969 33.050781 15.203125 58.046875 43.785156 68.707031 78.566406zm0 0"/><path d="m10.4375 215.546875c-18.445312-46.699219 2.214844-99.726563 47.390625-121.640625s99.609375-5.316406 124.867187 38.082031c.519532.894531.984376 1.816407 1.472657 2.734375-.246094.382813-.457031.785156-.640625 1.199219-33.347656-14.539063-71.316406-14.160156-104.367188 1.042969-33.050781 15.203125-58.042968 43.785156-68.703125 78.566406zm0 0"/><path d="m188.65625 134.730469c-.21875.410156-.441406.800781-.648438 1.214843l.65625.273438.648438-.273438c-.1875-.421874-.40625-.828124-.65625-1.214843zm0 0"/><path d="m187.617188 136.652344c.34375-.160156.695312-.28125 1.039062-.433594l-.65625-.273438zm0 0"/><path d="m183.550781 146.003906c1.664063-1.488281 3.359375-2.945312 5.105469-4.34375-.800781-.648437-1.601562-1.265625-2.464844-1.890625-.910156 2.035157-1.800781 4.082031-2.640625 6.234375zm0 0"/><path d="m187.136719 137.53125c-1.125.054688-2.242188.1875-3.34375.398438.796875.59375 1.597656 1.226562 2.398437 1.839843.320313-.71875.609375-1.519531.945313-2.238281zm0 0"/><path d="m193.933594 137.609375c-1.757813-.078125-3.519532-.160156-5.277344-.160156 1.734375 0 3.429688.167969 5.152344.257812zm0 0"/><path d="m183.375 137.609375.128906.097656c1.71875-.089843 3.414063-.257812 5.152344-.257812-1.761719 0-3.519531.082031-5.28125.160156zm0 0"/><path d="m189.6875 136.652344c-.152344-.234375-.230469-.464844-.382812-.695313l-.648438.253907c.34375.152343.695312.273437 1.03125.441406zm0 0"/><path d="m169.519531 133.097656c1.785157-.574218 3.566407-1.285156 5.34375-2.023437-1.425781-.4375-2.855469-.800781-4.289062-1.222657-.320313 1.078126-.640625 2.183594-1.054688 3.246094zm0 0"/><path d="m205.832031 39.988281c-17.675781-30.609375-56.816406-41.097656-87.425781-23.425781-4.066406 2.363281-7.871094 5.152344-11.351562 8.3125 43.085937 6.539062 72.96875 46.414062 67.152343 89.601562l.0625.0625-.0625-.0625c-.707031 5.21875-1.917969 10.355469-3.617187 15.34375 1.433594.390626 2.867187.796876 4.289062 1.222657 2.589844-1.058594 5.109375-2.28125 7.542969-3.664063 30.585937-17.679687 41.0625-56.792968 23.410156-87.390625zm0 0"/></g><path d="m369.800781 218.53125c18.992188-47.988281.058594-102.648438-44.546875-128.609375-32.644531-18.898437-72.972656-18.59375-105.328125.800781v-.113281c7.527344-28.117187-2.621093-58.003906-25.714843-75.726563-23.09375-17.722656-54.585938-19.796874-79.804688-5.253906-4.5625 2.648438-8.832031 5.777344-12.734375 9.328125-2.285156 2.066407-3.175781 5.265625-2.292969 8.21875.882813 2.953125 3.382813 5.136719 6.429688 5.609375 32.554687 4.902344 57.613281 31.304688 60.796875 64.074219-33.277344-25.238281-78.472657-27.988281-114.566407-6.96875-44.539062 26.015625-63.445312 80.628906-44.527343 128.617187.078125.199219.222656.351563.320312.550782.09375.199218.222657.367187.335938.558594.375.632812.839843 1.207031 1.375 1.707031.179687.179687.371093.351562.570312.511719.71875.5625 1.53125 1 2.398438 1.289062.046875 0 .085937.0625.144531.078125 1.695312.539063 3.53125.457031 5.175781-.222656h.101563c.082031 0 .136718-.105469.21875-.144531.816406-.355469 1.5625-.84375 2.214844-1.449219.136718-.128907.265624-.253907.390624-.390625.5625-.601563 1.027344-1.289063 1.378907-2.03125.070312-.144532.152343-.28125.214843-.433594s.230469-.382812.296876-.601562c17.347656-56.957032 74.070312-92.375 132.863281-82.964844-32.691407 10.90625-57.824219 37.351562-67.054688 70.558594-9.226562 33.207031-1.34375 68.828124 21.03125 95.039062-.527343 9.441406-.832031 19.113281-.832031 28.886719 0 54.992187 8.800781 107.546875 24.175781 144.882812.347657 3.210938 2.640625 5.878907 5.765625 6.703125.332032.085938.664063.152344 1 .199219.347656.101563.699219.171875 1.058594.214844h88c.285156-.039063.566406-.09375.847656-.167969.433594.09375.875.148438 1.320313.167969 2.855469-.003907 5.488281-1.53125 6.914062-4.003907 1.425781-2.476562 1.425781-5.523437-.003906-7.996093-19.859375-34.875-35.082031-72.195313-45.269531-111.015625-20.714844-77.277344-21.601563-154.308594-2.96875-205.496094 23.664062 21.507812 37.730468 51.597656 39.058594 83.546875 1.324218 31.949219-10.195313 63.097656-31.996094 86.496094-.09375.109375-.128906.246093-.214844.351562-.339844.441407-.632812.917969-.871094 1.421875-.253906.414063-.464844.851563-.632812 1.304688-.117188.460937-.191406.933594-.222656 1.410156-.089844.554688-.121094 1.117188-.097657 1.679688v.414062c.101563.394531.234375.777344.390625 1.152344.101563.433594.242188.851562.425782 1.257812.328124.617188.738281 1.191406 1.214843 1.703125.175781.191407.25.429688.449219.617188 0 0 .078125 0 .121094.070312.609375.523438 1.292968.953125 2.03125 1.273438.160156.070312.285156.207031.445312.261719.90625.347656 1.867188.527343 2.832032.527343.378906.003907.757812-.023437 1.128906-.078125 47.644531-6.859375 84.34375-45.535156 88.6875-93.476562 4.34375-47.9375-24.804688-92.582032-70.4375-107.890625 58.800781-9.445313 115.550781 25.960937 132.917968 82.925781.046876.152344.152344.273438.207032.425781.140625.320313.296875.632813.472656.933594.28125.546875.625 1.054687 1.023438 1.519531.226562.253906.46875.496094.722656.722656.527344.453126 1.113281.839844 1.742187 1.144532.183594.085937.304688.246094.496094.320312.191406.070313.152344 0 .226563.046875.878906.335938 1.808593.519531 2.75.535157.789062 0 1.574218-.117188 2.328124-.351563l.113282-.0625c.867187-.285156 1.679687-.71875 2.398437-1.28125.230469-.183594.453125-.386719.65625-.601563.46875-.445312.875-.953124 1.214844-1.503906.179687-.253906.339844-.523437.480469-.796875.066406-.152343.175781-.265625.242187-.425781zm-243.867187-196.914062c26.425781-12.835938 58.28125-3.074219 72.96875 22.367187 14.691406 25.441406 7.226562 57.910156-17.101563 74.378906.183594-1.089843.261719-2.183593.398438-3.28125 0-.101562 0-.199219.039062-.304687 5.070313-40.34375-18.226562-78.890625-56.304687-93.160156zm-56.796875 113.875c-22.34375 12.875-40.535157 31.878906-52.425781 54.757812-3.96875-34.867188 13.007812-68.796875 43.296874-86.527344 34.210938-19.878906 77.507813-14.332031 105.597657 13.535156-.191407 1.023438-.390625 2.035157-.621094 3.050782-32.734375-6.875-66.851563-1.472656-95.855469 15.183594zm101.519531 11.824218c-43.492188 45.058594-50.441406 114.054688-16.800781 166.878906-35.253907-15.152343-56.613281-51.417968-52.769531-89.597656 3.84375-38.179687 32-69.460937 69.570312-77.28125zm-5.160156 33.445313c-6.660156 39.6875-6.988282 80.175781-.96875 119.960937-21.503906-37.191406-21.132813-83.121094.96875-119.960937zm51.71875 284.6875h-70.65625c-15.351563-43.664063-22.769532-89.722657-21.902344-136 0-4.734375.085938-9.429688.214844-14.09375 13.34375 10.464843 29.070312 17.46875 45.777344 20.382812 1.886718 8.929688 4 17.871094 6.359374 26.824219 9.449219 35.710938 22.9375 70.230469 40.207032 102.886719zm59.441406-232c-.144531 35.089843-21.023438 66.773437-53.207031 80.746093 33.636719-52.824218 26.691406-121.820312-16.800781-166.878906 40.753906 8.566406 69.949218 44.488282 70.007812 86.132813zm31.527344-97.957031c-30.4375-17.480469-66.441406-22.550782-100.519532-14.160157 27.757813-31.085937 73.523438-38.414062 109.597657-17.554687 30.324219 17.675781 47.320312 51.605468 43.320312 86.472656-11.882812-22.878906-30.066406-41.878906-52.398437-54.757812zm0 0" fill="#57a4ff"/></svg>